<mxfile host="Electron" agent="Mozilla/5.0 (Windows NT 10.0; Win64; x64) AppleWebKit/537.36 (KHTML, like Gecko) draw.io/26.0.16 Chrome/132.0.6834.196 Electron/34.2.0 Safari/537.36" version="26.0.16">
  <diagram name="Page-1" id="2a216829-ef6e-dabb-86c1-c78162f3ba2b">
    <mxGraphModel dx="359" dy="645" grid="1" gridSize="10" guides="1" tooltips="1" connect="1" arrows="1" fold="1" page="1" pageScale="1" pageWidth="850" pageHeight="1100" background="none" math="0" shadow="0">
      <root>
        <mxCell id="0" />
        <mxCell id="1" parent="0" />
        <mxCell id="qyanWZYCYMAcObQ7m-D7-1" value="Расчет стипендии" style="swimlane;childLayout=stackLayout;resizeParent=1;resizeParentMax=0;horizontal=0;startSize=20;horizontalStack=0;html=1;" vertex="1" parent="1">
          <mxGeometry x="80" y="40" width="1040" height="685" as="geometry" />
        </mxCell>
        <mxCell id="qyanWZYCYMAcObQ7m-D7-7" value="Бухгалтер" style="swimlane;startSize=20;horizontal=0;html=1;" vertex="1" parent="qyanWZYCYMAcObQ7m-D7-1">
          <mxGeometry x="20" width="1020" height="230" as="geometry" />
        </mxCell>
        <mxCell id="qyanWZYCYMAcObQ7m-D7-55" value="" style="edgeStyle=orthogonalEdgeStyle;rounded=0;orthogonalLoop=1;jettySize=auto;html=1;" edge="1" parent="qyanWZYCYMAcObQ7m-D7-7" source="qyanWZYCYMAcObQ7m-D7-13" target="qyanWZYCYMAcObQ7m-D7-51">
          <mxGeometry relative="1" as="geometry" />
        </mxCell>
        <mxCell id="qyanWZYCYMAcObQ7m-D7-56" value="Расчет&amp;nbsp;&lt;div&gt;утверждн&lt;/div&gt;" style="edgeLabel;html=1;align=center;verticalAlign=middle;resizable=0;points=[];" vertex="1" connectable="0" parent="qyanWZYCYMAcObQ7m-D7-55">
          <mxGeometry x="-0.1533" y="-1" relative="1" as="geometry">
            <mxPoint x="9" y="-26" as="offset" />
          </mxGeometry>
        </mxCell>
        <mxCell id="qyanWZYCYMAcObQ7m-D7-13" value="Проверить расчет" style="rounded=1;whiteSpace=wrap;html=1;" vertex="1" parent="qyanWZYCYMAcObQ7m-D7-7">
          <mxGeometry x="590" y="70" width="120" height="60" as="geometry" />
        </mxCell>
        <mxCell id="qyanWZYCYMAcObQ7m-D7-14" value="" style="edgeStyle=orthogonalEdgeStyle;rounded=0;orthogonalLoop=1;jettySize=auto;html=1;" edge="1" parent="qyanWZYCYMAcObQ7m-D7-7" source="qyanWZYCYMAcObQ7m-D7-11" target="qyanWZYCYMAcObQ7m-D7-13">
          <mxGeometry relative="1" as="geometry" />
        </mxCell>
        <mxCell id="qyanWZYCYMAcObQ7m-D7-11" value="Рассчитать стипендии" style="rounded=1;whiteSpace=wrap;html=1;" vertex="1" parent="qyanWZYCYMAcObQ7m-D7-7">
          <mxGeometry x="400" y="70" width="120" height="60" as="geometry" />
        </mxCell>
        <mxCell id="qyanWZYCYMAcObQ7m-D7-28" value="" style="shape=datastore;whiteSpace=wrap;html=1;" vertex="1" parent="qyanWZYCYMAcObQ7m-D7-7">
          <mxGeometry x="300" y="20" width="60" height="60" as="geometry" />
        </mxCell>
        <mxCell id="qyanWZYCYMAcObQ7m-D7-29" value="Стипендия" style="text;strokeColor=none;fillColor=none;align=left;verticalAlign=top;spacingLeft=4;spacingRight=4;overflow=hidden;rotatable=0;points=[[0,0.5],[1,0.5]];portConstraint=eastwest;whiteSpace=wrap;html=1;" vertex="1" parent="qyanWZYCYMAcObQ7m-D7-7">
          <mxGeometry x="290" y="87" width="70" height="26" as="geometry" />
        </mxCell>
        <mxCell id="qyanWZYCYMAcObQ7m-D7-30" value="" style="endArrow=none;dashed=1;html=1;dashPattern=1 3;strokeWidth=2;rounded=0;exitX=1;exitY=0.3;exitDx=0;exitDy=0;entryX=0.5;entryY=0;entryDx=0;entryDy=0;" edge="1" parent="qyanWZYCYMAcObQ7m-D7-7" source="qyanWZYCYMAcObQ7m-D7-28" target="qyanWZYCYMAcObQ7m-D7-11">
          <mxGeometry width="50" height="50" relative="1" as="geometry">
            <mxPoint x="480" y="60" as="sourcePoint" />
            <mxPoint x="530" y="10" as="targetPoint" />
            <Array as="points">
              <mxPoint x="460" y="38" />
            </Array>
          </mxGeometry>
        </mxCell>
        <mxCell id="qyanWZYCYMAcObQ7m-D7-61" value="" style="edgeStyle=orthogonalEdgeStyle;rounded=0;orthogonalLoop=1;jettySize=auto;html=1;" edge="1" parent="qyanWZYCYMAcObQ7m-D7-7" source="qyanWZYCYMAcObQ7m-D7-51" target="qyanWZYCYMAcObQ7m-D7-59">
          <mxGeometry relative="1" as="geometry" />
        </mxCell>
        <mxCell id="qyanWZYCYMAcObQ7m-D7-63" value="Да" style="edgeLabel;html=1;align=center;verticalAlign=middle;resizable=0;points=[];" vertex="1" connectable="0" parent="qyanWZYCYMAcObQ7m-D7-61">
          <mxGeometry x="-0.5067" y="-3" relative="1" as="geometry">
            <mxPoint as="offset" />
          </mxGeometry>
        </mxCell>
        <mxCell id="qyanWZYCYMAcObQ7m-D7-51" value="" style="shape=mxgraph.bpmn.shape;html=1;verticalLabelPosition=bottom;labelBackgroundColor=#ffffff;verticalAlign=top;perimeter=rhombusPerimeter;background=gateway;outline=none;symbol=parallelGw;" vertex="1" parent="qyanWZYCYMAcObQ7m-D7-7">
          <mxGeometry x="760" y="75" width="50" height="50" as="geometry" />
        </mxCell>
        <mxCell id="qyanWZYCYMAcObQ7m-D7-57" value="" style="shape=note;whiteSpace=wrap;html=1;backgroundOutline=1;darkOpacity=0.05;" vertex="1" parent="qyanWZYCYMAcObQ7m-D7-7">
          <mxGeometry x="950" y="140" width="50" height="70" as="geometry" />
        </mxCell>
        <mxCell id="qyanWZYCYMAcObQ7m-D7-59" value="Утвердить назначенные стипендии" style="rounded=1;whiteSpace=wrap;html=1;" vertex="1" parent="qyanWZYCYMAcObQ7m-D7-7">
          <mxGeometry x="860" y="70" width="120" height="60" as="geometry" />
        </mxCell>
        <UserObject label="Стипендии" placeholders="1" name="Variable" id="qyanWZYCYMAcObQ7m-D7-58">
          <mxCell style="text;html=1;strokeColor=none;fillColor=none;align=center;verticalAlign=middle;whiteSpace=wrap;overflow=hidden;" vertex="1" parent="qyanWZYCYMAcObQ7m-D7-7">
            <mxGeometry x="935" y="210" width="80" height="20" as="geometry" />
          </mxCell>
        </UserObject>
        <mxCell id="qyanWZYCYMAcObQ7m-D7-62" value="" style="endArrow=none;dashed=1;html=1;dashPattern=1 3;strokeWidth=2;rounded=0;exitX=0.5;exitY=1;exitDx=0;exitDy=0;entryX=0;entryY=0.5;entryDx=0;entryDy=0;entryPerimeter=0;" edge="1" parent="qyanWZYCYMAcObQ7m-D7-7" source="qyanWZYCYMAcObQ7m-D7-59" target="qyanWZYCYMAcObQ7m-D7-57">
          <mxGeometry width="50" height="50" relative="1" as="geometry">
            <mxPoint x="860" y="400" as="sourcePoint" />
            <mxPoint x="910" y="350" as="targetPoint" />
            <Array as="points">
              <mxPoint x="920" y="175" />
            </Array>
          </mxGeometry>
        </mxCell>
        <mxCell id="qyanWZYCYMAcObQ7m-D7-64" value="" style="shape=singleArrow;whiteSpace=wrap;html=1;arrowWidth=0.4090909090909091;arrowSize=0.4425;fillColor=#000000;" vertex="1" parent="qyanWZYCYMAcObQ7m-D7-7">
          <mxGeometry x="950" y="150" width="25" height="22" as="geometry" />
        </mxCell>
        <mxCell id="qyanWZYCYMAcObQ7m-D7-3" value="Студент" style="swimlane;startSize=20;horizontal=0;html=1;" vertex="1" parent="qyanWZYCYMAcObQ7m-D7-1">
          <mxGeometry x="20" y="230" width="1020" height="215" as="geometry" />
        </mxCell>
        <mxCell id="qyanWZYCYMAcObQ7m-D7-49" value="" style="edgeStyle=orthogonalEdgeStyle;rounded=0;orthogonalLoop=1;jettySize=auto;html=1;" edge="1" parent="qyanWZYCYMAcObQ7m-D7-3" source="qyanWZYCYMAcObQ7m-D7-44" target="qyanWZYCYMAcObQ7m-D7-48">
          <mxGeometry relative="1" as="geometry" />
        </mxCell>
        <mxCell id="qyanWZYCYMAcObQ7m-D7-44" value="" style="ellipse;whiteSpace=wrap;html=1;aspect=fixed;" vertex="1" parent="qyanWZYCYMAcObQ7m-D7-3">
          <mxGeometry x="60" y="72.5" width="70" height="70" as="geometry" />
        </mxCell>
        <mxCell id="qyanWZYCYMAcObQ7m-D7-48" value="Запрос изменения оценки" style="rounded=1;whiteSpace=wrap;html=1;" vertex="1" parent="qyanWZYCYMAcObQ7m-D7-3">
          <mxGeometry x="170" y="77.5" width="120" height="60" as="geometry" />
        </mxCell>
        <mxCell id="qyanWZYCYMAcObQ7m-D7-4" value="Деканат" style="swimlane;startSize=20;horizontal=0;html=1;" vertex="1" parent="qyanWZYCYMAcObQ7m-D7-1">
          <mxGeometry x="20" y="445" width="1020" height="240" as="geometry" />
        </mxCell>
        <mxCell id="qyanWZYCYMAcObQ7m-D7-10" value="" style="edgeStyle=orthogonalEdgeStyle;rounded=0;orthogonalLoop=1;jettySize=auto;html=1;" edge="1" parent="qyanWZYCYMAcObQ7m-D7-4" source="qyanWZYCYMAcObQ7m-D7-8" target="qyanWZYCYMAcObQ7m-D7-9">
          <mxGeometry relative="1" as="geometry" />
        </mxCell>
        <mxCell id="qyanWZYCYMAcObQ7m-D7-8" value="" style="ellipse;whiteSpace=wrap;html=1;aspect=fixed;" vertex="1" parent="qyanWZYCYMAcObQ7m-D7-4">
          <mxGeometry x="50" y="75" width="70" height="70" as="geometry" />
        </mxCell>
        <mxCell id="qyanWZYCYMAcObQ7m-D7-16" value="" style="edgeStyle=orthogonalEdgeStyle;rounded=0;orthogonalLoop=1;jettySize=auto;html=1;" edge="1" parent="qyanWZYCYMAcObQ7m-D7-4" source="qyanWZYCYMAcObQ7m-D7-9" target="qyanWZYCYMAcObQ7m-D7-15">
          <mxGeometry relative="1" as="geometry" />
        </mxCell>
        <mxCell id="qyanWZYCYMAcObQ7m-D7-17" value="Пересчитать&amp;nbsp;&lt;div&gt;с&lt;span style=&quot;background-color: light-dark(#ffffff, var(--ge-dark-color, #121212)); color: light-dark(rgb(0, 0, 0), rgb(255, 255, 255));&quot;&gt;типендии&lt;/span&gt;&lt;/div&gt;" style="edgeLabel;html=1;align=center;verticalAlign=middle;resizable=0;points=[];" vertex="1" connectable="0" parent="qyanWZYCYMAcObQ7m-D7-16">
          <mxGeometry x="0.2912" y="2" relative="1" as="geometry">
            <mxPoint y="-23" as="offset" />
          </mxGeometry>
        </mxCell>
        <mxCell id="qyanWZYCYMAcObQ7m-D7-9" value="Внести/изменить оценки студентов" style="rounded=1;whiteSpace=wrap;html=1;" vertex="1" parent="qyanWZYCYMAcObQ7m-D7-4">
          <mxGeometry x="170" y="80" width="120" height="60" as="geometry" />
        </mxCell>
        <mxCell id="qyanWZYCYMAcObQ7m-D7-15" value="" style="shape=mxgraph.bpmn.shape;html=1;verticalLabelPosition=bottom;labelBackgroundColor=#ffffff;verticalAlign=top;perimeter=rhombusPerimeter;background=gateway;outline=none;symbol=parallelGw;" vertex="1" parent="qyanWZYCYMAcObQ7m-D7-4">
          <mxGeometry x="350" y="85" width="50" height="50" as="geometry" />
        </mxCell>
        <mxCell id="qyanWZYCYMAcObQ7m-D7-21" value="" style="shape=note;whiteSpace=wrap;html=1;backgroundOutline=1;darkOpacity=0.05;" vertex="1" parent="qyanWZYCYMAcObQ7m-D7-4">
          <mxGeometry x="300" y="145" width="60" height="75" as="geometry" />
        </mxCell>
        <mxCell id="qyanWZYCYMAcObQ7m-D7-22" value="" style="endArrow=none;dashed=1;html=1;dashPattern=1 3;strokeWidth=2;rounded=0;exitX=0.5;exitY=1;exitDx=0;exitDy=0;entryX=0;entryY=0.5;entryDx=0;entryDy=0;entryPerimeter=0;" edge="1" parent="qyanWZYCYMAcObQ7m-D7-4" source="qyanWZYCYMAcObQ7m-D7-9" target="qyanWZYCYMAcObQ7m-D7-21">
          <mxGeometry width="50" height="50" relative="1" as="geometry">
            <mxPoint x="200" y="215" as="sourcePoint" />
            <mxPoint x="250" y="165" as="targetPoint" />
            <Array as="points">
              <mxPoint x="230" y="183" />
            </Array>
          </mxGeometry>
        </mxCell>
        <UserObject label="Оценки" placeholders="1" name="Variable" id="qyanWZYCYMAcObQ7m-D7-23">
          <mxCell style="text;html=1;strokeColor=none;fillColor=none;align=center;verticalAlign=middle;whiteSpace=wrap;overflow=hidden;" vertex="1" parent="qyanWZYCYMAcObQ7m-D7-4">
            <mxGeometry x="290" y="220" width="80" height="20" as="geometry" />
          </mxCell>
        </UserObject>
        <mxCell id="qyanWZYCYMAcObQ7m-D7-24" value="" style="shape=datastore;whiteSpace=wrap;html=1;" vertex="1" parent="qyanWZYCYMAcObQ7m-D7-4">
          <mxGeometry x="110" y="153" width="60" height="60" as="geometry" />
        </mxCell>
        <mxCell id="qyanWZYCYMAcObQ7m-D7-26" value="" style="endArrow=none;dashed=1;html=1;dashPattern=1 3;strokeWidth=2;rounded=0;exitX=1;exitY=0.5;exitDx=0;exitDy=0;entryX=0.5;entryY=1;entryDx=0;entryDy=0;" edge="1" parent="qyanWZYCYMAcObQ7m-D7-4" source="qyanWZYCYMAcObQ7m-D7-24" target="qyanWZYCYMAcObQ7m-D7-9">
          <mxGeometry width="50" height="50" relative="1" as="geometry">
            <mxPoint x="210" y="235" as="sourcePoint" />
            <mxPoint x="260" y="185" as="targetPoint" />
            <Array as="points">
              <mxPoint x="230" y="183" />
            </Array>
          </mxGeometry>
        </mxCell>
        <UserObject label="Оценки" placeholders="1" name="Variable" id="qyanWZYCYMAcObQ7m-D7-27">
          <mxCell style="text;html=1;strokeColor=none;fillColor=none;align=center;verticalAlign=middle;whiteSpace=wrap;overflow=hidden;" vertex="1" parent="qyanWZYCYMAcObQ7m-D7-4">
            <mxGeometry x="100" y="220" width="80" height="20" as="geometry" />
          </mxCell>
        </UserObject>
        <mxCell id="qyanWZYCYMAcObQ7m-D7-19" style="edgeStyle=orthogonalEdgeStyle;rounded=0;orthogonalLoop=1;jettySize=auto;html=1;entryX=0;entryY=0.5;entryDx=0;entryDy=0;" edge="1" parent="qyanWZYCYMAcObQ7m-D7-1" source="qyanWZYCYMAcObQ7m-D7-15" target="qyanWZYCYMAcObQ7m-D7-11">
          <mxGeometry relative="1" as="geometry" />
        </mxCell>
        <mxCell id="qyanWZYCYMAcObQ7m-D7-20" value="Да" style="edgeLabel;html=1;align=center;verticalAlign=middle;resizable=0;points=[];" vertex="1" connectable="0" parent="qyanWZYCYMAcObQ7m-D7-19">
          <mxGeometry x="-0.8774" y="1" relative="1" as="geometry">
            <mxPoint as="offset" />
          </mxGeometry>
        </mxCell>
        <mxCell id="qyanWZYCYMAcObQ7m-D7-50" style="edgeStyle=orthogonalEdgeStyle;rounded=0;orthogonalLoop=1;jettySize=auto;html=1;entryX=0.5;entryY=0;entryDx=0;entryDy=0;" edge="1" parent="qyanWZYCYMAcObQ7m-D7-1" source="qyanWZYCYMAcObQ7m-D7-48" target="qyanWZYCYMAcObQ7m-D7-9">
          <mxGeometry relative="1" as="geometry" />
        </mxCell>
      </root>
    </mxGraphModel>
  </diagram>
</mxfile>
